<mxfile host="65bd71144e">
    <diagram name="Page-1" id="9igZDPfhPXJH46Dp4Xin">
        <mxGraphModel dx="2836" dy="1158" grid="0" gridSize="10" guides="0" tooltips="1" connect="1" arrows="1" fold="1" page="0" pageScale="1" pageWidth="827" pageHeight="1169" math="0" shadow="0">
            <root>
                <mxCell id="0"/>
                <mxCell id="1" parent="0"/>
                <mxCell id="AcevdbCNkm1F3D4bHwnx-15" style="edgeStyle=orthogonalEdgeStyle;rounded=0;orthogonalLoop=1;jettySize=auto;html=1;exitX=1;exitY=0.25;exitDx=0;exitDy=0;entryX=0;entryY=0.5;entryDx=0;entryDy=0;" parent="1" source="AcevdbCNkm1F3D4bHwnx-1" target="AcevdbCNkm1F3D4bHwnx-3" edge="1">
                    <mxGeometry relative="1" as="geometry"/>
                </mxCell>
                <mxCell id="AcevdbCNkm1F3D4bHwnx-16" style="edgeStyle=orthogonalEdgeStyle;rounded=0;orthogonalLoop=1;jettySize=auto;html=1;exitX=1;exitY=0.75;exitDx=0;exitDy=0;" parent="1" source="AcevdbCNkm1F3D4bHwnx-1" target="AcevdbCNkm1F3D4bHwnx-4" edge="1">
                    <mxGeometry relative="1" as="geometry"/>
                </mxCell>
                <mxCell id="AcevdbCNkm1F3D4bHwnx-19" style="edgeStyle=orthogonalEdgeStyle;rounded=0;orthogonalLoop=1;jettySize=auto;html=1;exitX=0;exitY=0.25;exitDx=0;exitDy=0;entryX=1;entryY=0.5;entryDx=0;entryDy=0;" parent="1" source="AcevdbCNkm1F3D4bHwnx-1" target="AcevdbCNkm1F3D4bHwnx-17" edge="1">
                    <mxGeometry relative="1" as="geometry"/>
                </mxCell>
                <mxCell id="AcevdbCNkm1F3D4bHwnx-20" style="edgeStyle=orthogonalEdgeStyle;rounded=0;orthogonalLoop=1;jettySize=auto;html=1;exitX=0;exitY=0.75;exitDx=0;exitDy=0;entryX=1;entryY=0.5;entryDx=0;entryDy=0;" parent="1" source="AcevdbCNkm1F3D4bHwnx-1" target="AcevdbCNkm1F3D4bHwnx-18" edge="1">
                    <mxGeometry relative="1" as="geometry"/>
                </mxCell>
                <mxCell id="AcevdbCNkm1F3D4bHwnx-32" style="edgeStyle=orthogonalEdgeStyle;rounded=0;orthogonalLoop=1;jettySize=auto;html=1;exitX=0.75;exitY=0;exitDx=0;exitDy=0;entryX=0.5;entryY=1;entryDx=0;entryDy=0;" parent="1" source="AcevdbCNkm1F3D4bHwnx-1" target="AcevdbCNkm1F3D4bHwnx-6" edge="1">
                    <mxGeometry relative="1" as="geometry"/>
                </mxCell>
                <mxCell id="AcevdbCNkm1F3D4bHwnx-33" style="edgeStyle=orthogonalEdgeStyle;rounded=0;orthogonalLoop=1;jettySize=auto;html=1;exitX=0.25;exitY=0;exitDx=0;exitDy=0;" parent="1" source="AcevdbCNkm1F3D4bHwnx-1" target="AcevdbCNkm1F3D4bHwnx-2" edge="1">
                    <mxGeometry relative="1" as="geometry"/>
                </mxCell>
                <mxCell id="AcevdbCNkm1F3D4bHwnx-34" style="edgeStyle=orthogonalEdgeStyle;rounded=0;orthogonalLoop=1;jettySize=auto;html=1;exitX=0;exitY=0;exitDx=0;exitDy=0;" parent="1" source="AcevdbCNkm1F3D4bHwnx-1" target="AcevdbCNkm1F3D4bHwnx-14" edge="1">
                    <mxGeometry relative="1" as="geometry"/>
                </mxCell>
                <mxCell id="AcevdbCNkm1F3D4bHwnx-35" style="edgeStyle=orthogonalEdgeStyle;rounded=0;orthogonalLoop=1;jettySize=auto;html=1;exitX=1;exitY=0;exitDx=0;exitDy=0;entryX=0.5;entryY=1;entryDx=0;entryDy=0;" parent="1" source="AcevdbCNkm1F3D4bHwnx-1" target="AcevdbCNkm1F3D4bHwnx-5" edge="1">
                    <mxGeometry relative="1" as="geometry"/>
                </mxCell>
                <mxCell id="AcevdbCNkm1F3D4bHwnx-1" value="ARTIST" style="whiteSpace=wrap;html=1;fontSize=24;" parent="1" vertex="1">
                    <mxGeometry x="300" y="300" width="120" height="60" as="geometry"/>
                </mxCell>
                <mxCell id="AcevdbCNkm1F3D4bHwnx-2" value="&lt;u&gt;ID&lt;/u&gt;" style="ellipse;whiteSpace=wrap;html=1;" parent="1" vertex="1">
                    <mxGeometry x="285" y="140" width="50" height="40" as="geometry"/>
                </mxCell>
                <mxCell id="AcevdbCNkm1F3D4bHwnx-3" value="Year_of_birth" style="ellipse;whiteSpace=wrap;html=1;" parent="1" vertex="1">
                    <mxGeometry x="490" y="270" width="100" height="50" as="geometry"/>
                </mxCell>
                <mxCell id="AcevdbCNkm1F3D4bHwnx-4" value="Year_of_death" style="ellipse;whiteSpace=wrap;html=1;" parent="1" vertex="1">
                    <mxGeometry x="490" y="345" width="100" height="50" as="geometry"/>
                </mxCell>
                <mxCell id="AcevdbCNkm1F3D4bHwnx-5" value="Url" style="ellipse;whiteSpace=wrap;html=1;" parent="1" vertex="1">
                    <mxGeometry x="490" y="175" width="60" height="40" as="geometry"/>
                </mxCell>
                <mxCell id="AcevdbCNkm1F3D4bHwnx-12" style="edgeStyle=orthogonalEdgeStyle;rounded=0;orthogonalLoop=1;jettySize=auto;html=1;exitX=0;exitY=0;exitDx=0;exitDy=0;entryX=0.5;entryY=1;entryDx=0;entryDy=0;" parent="1" source="AcevdbCNkm1F3D4bHwnx-6" target="AcevdbCNkm1F3D4bHwnx-8" edge="1">
                    <mxGeometry relative="1" as="geometry"/>
                </mxCell>
                <mxCell id="AcevdbCNkm1F3D4bHwnx-13" style="edgeStyle=orthogonalEdgeStyle;rounded=0;orthogonalLoop=1;jettySize=auto;html=1;exitX=1;exitY=0;exitDx=0;exitDy=0;entryX=0.5;entryY=1;entryDx=0;entryDy=0;" parent="1" source="AcevdbCNkm1F3D4bHwnx-6" target="AcevdbCNkm1F3D4bHwnx-9" edge="1">
                    <mxGeometry relative="1" as="geometry"/>
                </mxCell>
                <mxCell id="AcevdbCNkm1F3D4bHwnx-6" value="Name" style="ellipse;whiteSpace=wrap;html=1;" parent="1" vertex="1">
                    <mxGeometry x="380" y="140" width="60" height="40" as="geometry"/>
                </mxCell>
                <mxCell id="AcevdbCNkm1F3D4bHwnx-8" value="First_name" style="ellipse;whiteSpace=wrap;html=1;" parent="1" vertex="1">
                    <mxGeometry x="300" y="50" width="80" height="50" as="geometry"/>
                </mxCell>
                <mxCell id="AcevdbCNkm1F3D4bHwnx-9" value="Last_name" style="ellipse;whiteSpace=wrap;html=1;" parent="1" vertex="1">
                    <mxGeometry x="440" y="50" width="80" height="50" as="geometry"/>
                </mxCell>
                <mxCell id="AcevdbCNkm1F3D4bHwnx-14" value="Gender" style="ellipse;whiteSpace=wrap;html=1;" parent="1" vertex="1">
                    <mxGeometry x="190" y="170" width="70" height="50" as="geometry"/>
                </mxCell>
                <mxCell id="AcevdbCNkm1F3D4bHwnx-24" style="edgeStyle=orthogonalEdgeStyle;rounded=0;orthogonalLoop=1;jettySize=auto;html=1;exitX=0;exitY=0;exitDx=0;exitDy=0;entryX=1;entryY=0.5;entryDx=0;entryDy=0;" parent="1" source="AcevdbCNkm1F3D4bHwnx-17" target="AcevdbCNkm1F3D4bHwnx-22" edge="1">
                    <mxGeometry relative="1" as="geometry"/>
                </mxCell>
                <mxCell id="AcevdbCNkm1F3D4bHwnx-25" style="edgeStyle=orthogonalEdgeStyle;rounded=0;orthogonalLoop=1;jettySize=auto;html=1;exitX=0;exitY=1;exitDx=0;exitDy=0;entryX=1;entryY=0.5;entryDx=0;entryDy=0;" parent="1" source="AcevdbCNkm1F3D4bHwnx-17" target="AcevdbCNkm1F3D4bHwnx-21" edge="1">
                    <mxGeometry relative="1" as="geometry"/>
                </mxCell>
                <mxCell id="AcevdbCNkm1F3D4bHwnx-17" value="Place_of_birth" style="ellipse;whiteSpace=wrap;html=1;" parent="1" vertex="1">
                    <mxGeometry x="140" y="270" width="100" height="50" as="geometry"/>
                </mxCell>
                <mxCell id="AcevdbCNkm1F3D4bHwnx-18" value="Place_of_death" style="ellipse;whiteSpace=wrap;html=1;" parent="1" vertex="1">
                    <mxGeometry x="140" y="345" width="100" height="50" as="geometry"/>
                </mxCell>
                <mxCell id="AcevdbCNkm1F3D4bHwnx-21" value="State" style="ellipse;whiteSpace=wrap;html=1;" parent="1" vertex="1">
                    <mxGeometry x="40" y="310" width="60" height="40" as="geometry"/>
                </mxCell>
                <mxCell id="AcevdbCNkm1F3D4bHwnx-22" value="City" style="ellipse;whiteSpace=wrap;html=1;" parent="1" vertex="1">
                    <mxGeometry x="40" y="240" width="60" height="40" as="geometry"/>
                </mxCell>
                <mxCell id="AcevdbCNkm1F3D4bHwnx-61" style="edgeStyle=orthogonalEdgeStyle;rounded=0;orthogonalLoop=1;jettySize=auto;html=1;exitX=0;exitY=0.25;exitDx=0;exitDy=0;entryX=1;entryY=0.5;entryDx=0;entryDy=0;" parent="1" source="AcevdbCNkm1F3D4bHwnx-29" target="AcevdbCNkm1F3D4bHwnx-38" edge="1">
                    <mxGeometry relative="1" as="geometry"/>
                </mxCell>
                <mxCell id="AcevdbCNkm1F3D4bHwnx-63" style="edgeStyle=orthogonalEdgeStyle;rounded=0;orthogonalLoop=1;jettySize=auto;html=1;exitX=0;exitY=0.75;exitDx=0;exitDy=0;entryX=1;entryY=0.5;entryDx=0;entryDy=0;" parent="1" source="AcevdbCNkm1F3D4bHwnx-29" target="AcevdbCNkm1F3D4bHwnx-45" edge="1">
                    <mxGeometry relative="1" as="geometry"/>
                </mxCell>
                <mxCell id="AcevdbCNkm1F3D4bHwnx-64" style="edgeStyle=orthogonalEdgeStyle;rounded=0;orthogonalLoop=1;jettySize=auto;html=1;exitX=0.25;exitY=1;exitDx=0;exitDy=0;" parent="1" source="AcevdbCNkm1F3D4bHwnx-29" target="AcevdbCNkm1F3D4bHwnx-56" edge="1">
                    <mxGeometry relative="1" as="geometry">
                        <Array as="points">
                            <mxPoint x="300" y="640"/>
                            <mxPoint x="300" y="715"/>
                            <mxPoint x="57" y="715"/>
                        </Array>
                    </mxGeometry>
                </mxCell>
                <mxCell id="AcevdbCNkm1F3D4bHwnx-74" style="edgeStyle=orthogonalEdgeStyle;rounded=0;orthogonalLoop=1;jettySize=auto;html=1;exitX=0;exitY=0.5;exitDx=0;exitDy=0;entryX=1;entryY=0.5;entryDx=0;entryDy=0;" parent="1" source="AcevdbCNkm1F3D4bHwnx-29" target="AcevdbCNkm1F3D4bHwnx-51" edge="1">
                    <mxGeometry relative="1" as="geometry"/>
                </mxCell>
                <mxCell id="AcevdbCNkm1F3D4bHwnx-75" style="edgeStyle=orthogonalEdgeStyle;rounded=0;orthogonalLoop=1;jettySize=auto;html=1;exitX=1;exitY=0.5;exitDx=0;exitDy=0;entryX=0;entryY=0.5;entryDx=0;entryDy=0;" parent="1" source="AcevdbCNkm1F3D4bHwnx-29" target="AcevdbCNkm1F3D4bHwnx-57" edge="1">
                    <mxGeometry relative="1" as="geometry"/>
                </mxCell>
                <mxCell id="AcevdbCNkm1F3D4bHwnx-77" style="edgeStyle=orthogonalEdgeStyle;rounded=0;orthogonalLoop=1;jettySize=auto;html=1;exitX=1;exitY=0.25;exitDx=0;exitDy=0;entryX=0;entryY=0.5;entryDx=0;entryDy=0;" parent="1" source="AcevdbCNkm1F3D4bHwnx-29" target="AcevdbCNkm1F3D4bHwnx-54" edge="1">
                    <mxGeometry relative="1" as="geometry"/>
                </mxCell>
                <mxCell id="AcevdbCNkm1F3D4bHwnx-78" style="edgeStyle=orthogonalEdgeStyle;rounded=0;orthogonalLoop=1;jettySize=auto;html=1;exitX=1;exitY=0.75;exitDx=0;exitDy=0;entryX=0;entryY=0.5;entryDx=0;entryDy=0;" parent="1" source="AcevdbCNkm1F3D4bHwnx-29" target="AcevdbCNkm1F3D4bHwnx-42" edge="1">
                    <mxGeometry relative="1" as="geometry"/>
                </mxCell>
                <mxCell id="AcevdbCNkm1F3D4bHwnx-95" style="edgeStyle=orthogonalEdgeStyle;rounded=0;orthogonalLoop=1;jettySize=auto;html=1;entryX=0.5;entryY=0;entryDx=0;entryDy=0;" parent="1" source="AcevdbCNkm1F3D4bHwnx-29" target="AcevdbCNkm1F3D4bHwnx-58" edge="1">
                    <mxGeometry relative="1" as="geometry">
                        <Array as="points">
                            <mxPoint x="320" y="730"/>
                            <mxPoint x="240" y="730"/>
                            <mxPoint x="240" y="750"/>
                        </Array>
                    </mxGeometry>
                </mxCell>
                <mxCell id="AcevdbCNkm1F3D4bHwnx-96" style="edgeStyle=orthogonalEdgeStyle;rounded=0;orthogonalLoop=1;jettySize=auto;html=1;" parent="1" source="AcevdbCNkm1F3D4bHwnx-29" target="AcevdbCNkm1F3D4bHwnx-59" edge="1">
                    <mxGeometry relative="1" as="geometry">
                        <Array as="points">
                            <mxPoint x="400" y="730"/>
                            <mxPoint x="480" y="730"/>
                        </Array>
                    </mxGeometry>
                </mxCell>
                <mxCell id="AcevdbCNkm1F3D4bHwnx-97" style="edgeStyle=orthogonalEdgeStyle;rounded=0;orthogonalLoop=1;jettySize=auto;html=1;entryX=0.5;entryY=0;entryDx=0;entryDy=0;" parent="1" source="AcevdbCNkm1F3D4bHwnx-29" target="AcevdbCNkm1F3D4bHwnx-88" edge="1">
                    <mxGeometry relative="1" as="geometry">
                        <Array as="points">
                            <mxPoint x="340" y="745"/>
                            <mxPoint x="310" y="745"/>
                        </Array>
                    </mxGeometry>
                </mxCell>
                <mxCell id="AcevdbCNkm1F3D4bHwnx-98" style="edgeStyle=orthogonalEdgeStyle;rounded=0;orthogonalLoop=1;jettySize=auto;html=1;exitX=0.5;exitY=1;exitDx=0;exitDy=0;entryX=0.5;entryY=0;entryDx=0;entryDy=0;" parent="1" source="AcevdbCNkm1F3D4bHwnx-29" target="AcevdbCNkm1F3D4bHwnx-47" edge="1">
                    <mxGeometry relative="1" as="geometry">
                        <Array as="points">
                            <mxPoint x="380" y="640"/>
                            <mxPoint x="380" y="745"/>
                            <mxPoint x="410" y="745"/>
                        </Array>
                    </mxGeometry>
                </mxCell>
                <mxCell id="AcevdbCNkm1F3D4bHwnx-99" style="edgeStyle=orthogonalEdgeStyle;rounded=0;orthogonalLoop=1;jettySize=auto;html=1;exitX=0.873;exitY=0.981;exitDx=0;exitDy=0;entryX=0.5;entryY=0;entryDx=0;entryDy=0;exitPerimeter=0;" parent="1" source="AcevdbCNkm1F3D4bHwnx-29" target="AcevdbCNkm1F3D4bHwnx-46" edge="1">
                    <mxGeometry relative="1" as="geometry">
                        <Array as="points">
                            <mxPoint x="416" y="715"/>
                            <mxPoint x="650" y="715"/>
                        </Array>
                    </mxGeometry>
                </mxCell>
                <mxCell id="AcevdbCNkm1F3D4bHwnx-29" value="ARTWORK" style="whiteSpace=wrap;html=1;fontSize=24;" parent="1" vertex="1">
                    <mxGeometry x="285" y="580" width="150" height="60" as="geometry"/>
                </mxCell>
                <mxCell id="AcevdbCNkm1F3D4bHwnx-36" style="edgeStyle=orthogonalEdgeStyle;rounded=0;orthogonalLoop=1;jettySize=auto;html=1;" parent="1" source="AcevdbCNkm1F3D4bHwnx-30" target="AcevdbCNkm1F3D4bHwnx-1" edge="1">
                    <mxGeometry relative="1" as="geometry"/>
                </mxCell>
                <mxCell id="AcevdbCNkm1F3D4bHwnx-37" style="edgeStyle=orthogonalEdgeStyle;rounded=0;orthogonalLoop=1;jettySize=auto;html=1;exitX=0.5;exitY=1;exitDx=0;exitDy=0;" parent="1" source="AcevdbCNkm1F3D4bHwnx-30" target="AcevdbCNkm1F3D4bHwnx-29" edge="1">
                    <mxGeometry relative="1" as="geometry"/>
                </mxCell>
                <mxCell id="AcevdbCNkm1F3D4bHwnx-30" value="Create" style="rhombus;whiteSpace=wrap;html=1;fillColor=#6a00ff;fontColor=#ffffff;strokeColor=#3700CC;" parent="1" vertex="1">
                    <mxGeometry x="315" y="450" width="90" height="50" as="geometry"/>
                </mxCell>
                <mxCell id="AcevdbCNkm1F3D4bHwnx-38" value="Date_text" style="ellipse;whiteSpace=wrap;html=1;" parent="1" vertex="1">
                    <mxGeometry x="80" y="510" width="100" height="50" as="geometry"/>
                </mxCell>
                <mxCell id="AcevdbCNkm1F3D4bHwnx-41" value="Type_of_acquisition" style="ellipse;whiteSpace=wrap;html=1;" parent="1" vertex="1">
                    <mxGeometry x="470" y="915" width="130" height="50" as="geometry"/>
                </mxCell>
                <mxCell id="AcevdbCNkm1F3D4bHwnx-42" value="Artist_role" style="ellipse;whiteSpace=wrap;html=1;" parent="1" vertex="1">
                    <mxGeometry x="580" y="655" width="100" height="50" as="geometry"/>
                </mxCell>
                <mxCell id="AcevdbCNkm1F3D4bHwnx-43" value="Acquisition_year" style="ellipse;whiteSpace=wrap;html=1;" parent="1" vertex="1">
                    <mxGeometry x="700" y="915" width="117" height="50" as="geometry"/>
                </mxCell>
                <mxCell id="AcevdbCNkm1F3D4bHwnx-45" value="Title" style="ellipse;whiteSpace=wrap;html=1;" parent="1" vertex="1">
                    <mxGeometry x="90" y="660" width="70" height="40" as="geometry"/>
                </mxCell>
                <mxCell id="AcevdbCNkm1F3D4bHwnx-81" style="edgeStyle=orthogonalEdgeStyle;rounded=0;orthogonalLoop=1;jettySize=auto;html=1;exitX=0;exitY=1;exitDx=0;exitDy=0;entryX=0.5;entryY=0;entryDx=0;entryDy=0;" parent="1" source="AcevdbCNkm1F3D4bHwnx-46" target="AcevdbCNkm1F3D4bHwnx-41" edge="1">
                    <mxGeometry relative="1" as="geometry"/>
                </mxCell>
                <mxCell id="AcevdbCNkm1F3D4bHwnx-82" style="edgeStyle=orthogonalEdgeStyle;rounded=0;orthogonalLoop=1;jettySize=auto;html=1;exitX=0.5;exitY=1;exitDx=0;exitDy=0;" parent="1" source="AcevdbCNkm1F3D4bHwnx-46" target="AcevdbCNkm1F3D4bHwnx-53" edge="1">
                    <mxGeometry relative="1" as="geometry"/>
                </mxCell>
                <mxCell id="AcevdbCNkm1F3D4bHwnx-83" style="edgeStyle=orthogonalEdgeStyle;rounded=0;orthogonalLoop=1;jettySize=auto;html=1;exitX=1;exitY=1;exitDx=0;exitDy=0;entryX=0.5;entryY=0;entryDx=0;entryDy=0;" parent="1" source="AcevdbCNkm1F3D4bHwnx-46" target="AcevdbCNkm1F3D4bHwnx-43" edge="1">
                    <mxGeometry relative="1" as="geometry"/>
                </mxCell>
                <mxCell id="AcevdbCNkm1F3D4bHwnx-46" value="Credit_line" style="ellipse;whiteSpace=wrap;html=1;" parent="1" vertex="1">
                    <mxGeometry x="600" y="790" width="100" height="50" as="geometry"/>
                </mxCell>
                <mxCell id="AcevdbCNkm1F3D4bHwnx-47" value="&lt;u&gt;ID&lt;/u&gt;" style="ellipse;whiteSpace=wrap;html=1;" parent="1" vertex="1">
                    <mxGeometry x="382.5" y="850" width="55" height="40" as="geometry"/>
                </mxCell>
                <mxCell id="AcevdbCNkm1F3D4bHwnx-48" value="Height" style="ellipse;whiteSpace=wrap;html=1;" parent="1" vertex="1">
                    <mxGeometry x="22.5" y="910" width="70" height="40" as="geometry"/>
                </mxCell>
                <mxCell id="AcevdbCNkm1F3D4bHwnx-50" value="Width" style="ellipse;whiteSpace=wrap;html=1;" parent="1" vertex="1">
                    <mxGeometry x="-62.5" y="880" width="70" height="40" as="geometry"/>
                </mxCell>
                <mxCell id="AcevdbCNkm1F3D4bHwnx-51" value="Year" style="ellipse;whiteSpace=wrap;html=1;" parent="1" vertex="1">
                    <mxGeometry x="35" y="591.25" width="70" height="37.5" as="geometry"/>
                </mxCell>
                <mxCell id="AcevdbCNkm1F3D4bHwnx-52" value="Unit" style="ellipse;whiteSpace=wrap;html=1;" parent="1" vertex="1">
                    <mxGeometry x="-140" y="920" width="70" height="40" as="geometry"/>
                </mxCell>
                <mxCell id="AcevdbCNkm1F3D4bHwnx-53" value="Buyer" style="ellipse;whiteSpace=wrap;html=1;" parent="1" vertex="1">
                    <mxGeometry x="615" y="960" width="70" height="40" as="geometry"/>
                </mxCell>
                <mxCell id="AcevdbCNkm1F3D4bHwnx-102" style="edgeStyle=orthogonalEdgeStyle;rounded=0;orthogonalLoop=1;jettySize=auto;html=1;exitX=1;exitY=0.5;exitDx=0;exitDy=0;entryX=0;entryY=0.5;entryDx=0;entryDy=0;" parent="1" source="AcevdbCNkm1F3D4bHwnx-54" target="AcevdbCNkm1F3D4bHwnx-101" edge="1">
                    <mxGeometry relative="1" as="geometry"/>
                </mxCell>
                <mxCell id="AcevdbCNkm1F3D4bHwnx-54" value="Artist_id" style="ellipse;whiteSpace=wrap;html=1;" parent="1" vertex="1">
                    <mxGeometry x="580" y="510" width="100" height="50" as="geometry"/>
                </mxCell>
                <mxCell id="AcevdbCNkm1F3D4bHwnx-55" value="Depth" style="ellipse;whiteSpace=wrap;html=1;" parent="1" vertex="1">
                    <mxGeometry x="107.5" y="880" width="75" height="40" as="geometry"/>
                </mxCell>
                <mxCell id="AcevdbCNkm1F3D4bHwnx-65" style="edgeStyle=orthogonalEdgeStyle;rounded=0;orthogonalLoop=1;jettySize=auto;html=1;exitX=0;exitY=1;exitDx=0;exitDy=0;entryX=0.5;entryY=0;entryDx=0;entryDy=0;" parent="1" source="AcevdbCNkm1F3D4bHwnx-56" target="AcevdbCNkm1F3D4bHwnx-50" edge="1">
                    <mxGeometry relative="1" as="geometry"/>
                </mxCell>
                <mxCell id="AcevdbCNkm1F3D4bHwnx-66" style="edgeStyle=orthogonalEdgeStyle;rounded=0;orthogonalLoop=1;jettySize=auto;html=1;exitX=0.5;exitY=1;exitDx=0;exitDy=0;entryX=0.5;entryY=0;entryDx=0;entryDy=0;" parent="1" source="AcevdbCNkm1F3D4bHwnx-56" target="AcevdbCNkm1F3D4bHwnx-48" edge="1">
                    <mxGeometry relative="1" as="geometry"/>
                </mxCell>
                <mxCell id="AcevdbCNkm1F3D4bHwnx-67" style="edgeStyle=orthogonalEdgeStyle;rounded=0;orthogonalLoop=1;jettySize=auto;html=1;exitX=1;exitY=1;exitDx=0;exitDy=0;entryX=0.5;entryY=0;entryDx=0;entryDy=0;" parent="1" source="AcevdbCNkm1F3D4bHwnx-56" target="AcevdbCNkm1F3D4bHwnx-55" edge="1">
                    <mxGeometry relative="1" as="geometry"/>
                </mxCell>
                <mxCell id="AcevdbCNkm1F3D4bHwnx-72" style="edgeStyle=orthogonalEdgeStyle;rounded=0;orthogonalLoop=1;jettySize=auto;html=1;exitX=0;exitY=0.5;exitDx=0;exitDy=0;" parent="1" source="AcevdbCNkm1F3D4bHwnx-56" target="AcevdbCNkm1F3D4bHwnx-52" edge="1">
                    <mxGeometry relative="1" as="geometry"/>
                </mxCell>
                <mxCell id="AcevdbCNkm1F3D4bHwnx-84" style="edgeStyle=orthogonalEdgeStyle;rounded=0;orthogonalLoop=1;jettySize=auto;html=1;exitX=1;exitY=0.5;exitDx=0;exitDy=0;" parent="1" source="AcevdbCNkm1F3D4bHwnx-56" target="AcevdbCNkm1F3D4bHwnx-70" edge="1">
                    <mxGeometry relative="1" as="geometry"/>
                </mxCell>
                <mxCell id="AcevdbCNkm1F3D4bHwnx-56" value="Dimensions" style="ellipse;whiteSpace=wrap;html=1;" parent="1" vertex="1">
                    <mxGeometry x="7.5" y="790" width="100" height="50" as="geometry"/>
                </mxCell>
                <mxCell id="AcevdbCNkm1F3D4bHwnx-57" value="Artist_name" style="ellipse;whiteSpace=wrap;html=1;" parent="1" vertex="1">
                    <mxGeometry x="640" y="584.5" width="100" height="50" as="geometry"/>
                </mxCell>
                <mxCell id="AcevdbCNkm1F3D4bHwnx-58" value="Accession_number" style="ellipse;whiteSpace=wrap;html=1;" parent="1" vertex="1">
                    <mxGeometry x="170" y="750" width="130" height="50" as="geometry"/>
                </mxCell>
                <mxCell id="AcevdbCNkm1F3D4bHwnx-59" value="Url" style="ellipse;whiteSpace=wrap;html=1;" parent="1" vertex="1">
                    <mxGeometry x="445" y="755" width="70" height="40" as="geometry"/>
                </mxCell>
                <mxCell id="AcevdbCNkm1F3D4bHwnx-70" value="Type" style="ellipse;shape=doubleEllipse;margin=3;whiteSpace=wrap;html=1;align=center;" parent="1" vertex="1">
                    <mxGeometry x="170" y="915" width="80" height="50" as="geometry"/>
                </mxCell>
                <mxCell id="AcevdbCNkm1F3D4bHwnx-88" value="Medium" style="ellipse;shape=doubleEllipse;margin=3;whiteSpace=wrap;html=1;align=center;" parent="1" vertex="1">
                    <mxGeometry x="260" y="850" width="100" height="40" as="geometry"/>
                </mxCell>
                <mxCell id="AcevdbCNkm1F3D4bHwnx-101" value="Count" style="ellipse;whiteSpace=wrap;html=1;align=center;dashed=1;" parent="1" vertex="1">
                    <mxGeometry x="723.5" y="515" width="70" height="40" as="geometry"/>
                </mxCell>
                <mxCell id="AcevdbCNkm1F3D4bHwnx-103" value="1, N" style="text;html=1;align=center;verticalAlign=middle;resizable=0;points=[];autosize=1;strokeColor=none;fillColor=none;" parent="1" vertex="1">
                    <mxGeometry x="310" y="395" width="50" height="30" as="geometry"/>
                </mxCell>
                <mxCell id="AcevdbCNkm1F3D4bHwnx-104" value="1, N" style="text;html=1;align=center;verticalAlign=middle;resizable=0;points=[];autosize=1;strokeColor=none;fillColor=none;" parent="1" vertex="1">
                    <mxGeometry x="315" y="520" width="50" height="30" as="geometry"/>
                </mxCell>
                <mxCell id="AcevdbCNkm1F3D4bHwnx-107" value="N : M" style="text;html=1;align=center;verticalAlign=middle;resizable=0;points=[];autosize=1;strokeColor=none;fillColor=none;" parent="1" vertex="1">
                    <mxGeometry x="400" y="460" width="50" height="30" as="geometry"/>
                </mxCell>
            </root>
        </mxGraphModel>
    </diagram>
</mxfile>